<svg width="321" height="100" viewBox="0 0 321 100" fill="none" xmlns="http://www.w3.org/2000/svg">
<path d="M83.0527 36.0391C83.9715 36.0391 84.9072 36.1394 85.8594 36.3398C86.8116 36.5403 87.6054 36.8326 88.2402 37.2168L86.9365 39.999C86.285 39.6148 85.6253 39.3553 84.957 39.2217C84.3056 39.0713 83.6708 38.9961 83.0527 38.9961C82.1841 38.9961 81.5494 39.1138 81.1484 39.3477C80.7476 39.5815 80.547 39.8816 80.5469 40.249C80.5469 40.5832 80.6886 40.8339 80.9727 41.001C81.2734 41.168 81.6659 41.3021 82.1504 41.4023C82.6348 41.5026 83.1615 41.5942 83.7295 41.6777C84.3141 41.7446 84.8988 41.8536 85.4834 42.0039C86.0679 42.1542 86.5939 42.3714 87.0615 42.6553C87.546 42.9226 87.9395 43.2987 88.2402 43.7832C88.5407 44.2508 88.6904 44.8687 88.6904 45.6367C88.6904 46.4719 88.4405 47.2157 87.9395 47.8672C87.4383 48.502 86.7111 49.0036 85.7588 49.3711C84.8234 49.7386 83.6791 49.9218 82.3262 49.9219C81.1736 49.9219 80.0623 49.7887 78.9932 49.5215C77.9408 49.2375 77.1054 48.8863 76.4873 48.4688L77.79 45.6621C78.4081 46.0463 79.1346 46.3637 79.9697 46.6143C80.8218 46.8481 81.658 46.9648 82.4766 46.9648C83.3785 46.9648 84.0134 46.8568 84.3809 46.6396C84.765 46.4225 84.957 46.1215 84.957 45.7373C84.957 45.42 84.8065 45.1865 84.5059 45.0361C84.2219 44.8691 83.8378 44.7437 83.3535 44.6602C82.869 44.5766 82.3337 44.4927 81.749 44.4092C81.1812 44.3257 80.6051 44.2166 80.0205 44.083C79.4358 43.9327 78.9005 43.7156 78.416 43.4316C77.9317 43.1477 77.5389 42.7636 77.2383 42.2793C76.9543 41.7948 76.8125 41.1679 76.8125 40.3994C76.8126 39.5476 77.0548 38.7959 77.5391 38.1445C78.0403 37.493 78.7588 36.9828 79.6943 36.6152C80.6299 36.231 81.7496 36.0391 83.0527 36.0391ZM96.3652 36.0391C97.284 36.0391 98.2197 36.1394 99.1719 36.3398C100.124 36.5403 100.918 36.8326 101.553 37.2168L100.25 39.999C99.5985 39.6148 98.9378 39.3553 98.2695 39.2217C97.6181 39.0714 96.9832 38.9961 96.3652 38.9961C95.4966 38.9961 94.8619 39.1138 94.4609 39.3477C94.0602 39.5815 93.8595 39.8817 93.8594 40.249C93.8594 40.583 94.0013 40.8339 94.2852 41.001C94.5858 41.168 94.9785 41.3021 95.4629 41.4023C95.9474 41.5026 96.474 41.5942 97.042 41.6777C97.6267 41.7446 98.2112 41.8536 98.7959 42.0039C99.3806 42.1543 99.9072 42.3713 100.375 42.6553C100.859 42.9226 101.252 43.2988 101.553 43.7832C101.853 44.2509 102.004 44.8686 102.004 45.6367C102.004 46.472 101.753 47.2157 101.252 47.8672C100.751 48.502 100.024 49.0036 99.0713 49.3711C98.1358 49.7385 96.9916 49.9219 95.6387 49.9219C94.4859 49.9219 93.3749 49.7888 92.3057 49.5215C91.2532 49.2375 90.4179 48.8864 89.7998 48.4688L91.1025 45.6621C91.7207 46.0464 92.4479 46.3637 93.2832 46.6143C94.1352 46.8481 94.9705 46.9648 95.7891 46.9648C96.691 46.9648 97.3258 46.8568 97.6934 46.6396C98.0776 46.4225 98.2695 46.1216 98.2695 45.7373C98.2695 45.4199 98.119 45.1865 97.8184 45.0361C97.5344 44.8691 97.1504 44.7437 96.666 44.6602C96.1816 44.5766 95.6471 44.4927 95.0625 44.4092C94.4945 44.3256 93.9177 44.2167 93.333 44.083C92.7484 43.9327 92.2139 43.7156 91.7295 43.4316C91.2451 43.1477 90.8525 42.7637 90.5518 42.2793C90.2677 41.7948 90.126 41.1679 90.126 40.3994C90.126 39.5475 90.3681 38.796 90.8525 38.1445C91.3537 37.493 92.0723 36.9828 93.0078 36.6152C93.9432 36.2311 95.0624 36.0391 96.3652 36.0391ZM110.605 36.0391C111.925 36.0391 113.112 36.3236 114.164 36.8916C115.233 37.4429 116.077 38.2445 116.695 39.2969C117.313 40.3327 117.622 41.5778 117.622 43.0312C117.622 43.1815 117.613 43.3573 117.597 43.5576C117.58 43.7411 117.564 43.9162 117.547 44.083H107.348C107.426 44.442 107.551 44.7766 107.724 45.0859C108.058 45.6372 108.517 46.0636 109.102 46.3643C109.703 46.6483 110.405 46.79 111.207 46.79C111.925 46.79 112.551 46.681 113.086 46.4639C113.637 46.2467 114.139 45.9207 114.59 45.4863L116.67 47.7422C116.052 48.4439 115.274 48.9868 114.339 49.3711C113.403 49.7385 112.326 49.9219 111.106 49.9219C109.57 49.9219 108.216 49.6219 107.047 49.0205C105.894 48.4191 105 47.6002 104.365 46.5645C103.73 45.512 103.413 44.3169 103.413 42.9805C103.413 41.6274 103.723 40.4332 104.341 39.3975C104.976 38.345 105.836 37.5261 106.922 36.9414C108.008 36.34 109.236 36.0391 110.605 36.0391ZM158.791 36.0391C160.111 36.0391 161.297 36.3236 162.35 36.8916C163.419 37.4429 164.263 38.2444 164.881 39.2969C165.499 40.3327 165.808 41.5778 165.808 43.0312C165.808 43.1815 165.8 43.3573 165.783 43.5576C165.767 43.7411 165.749 43.9162 165.732 44.083H155.533C155.612 44.442 155.736 44.7765 155.909 45.0859C156.243 45.6372 156.702 46.0636 157.287 46.3643C157.889 46.6483 158.591 46.79 159.393 46.79C160.111 46.79 160.738 46.681 161.272 46.4639C161.824 46.2467 162.324 45.9206 162.775 45.4863L164.855 47.7422C164.237 48.4438 163.461 48.9869 162.525 49.3711C161.59 49.7386 160.512 49.9219 159.292 49.9219C157.755 49.9218 156.402 49.6219 155.232 49.0205C154.08 48.4191 153.187 47.6001 152.552 46.5645C151.917 45.512 151.599 44.317 151.599 42.9805C151.599 41.6274 151.908 40.4331 152.526 39.3975C153.161 38.345 154.022 37.5261 155.107 36.9414C156.193 36.34 157.421 36.0391 158.791 36.0391ZM172.319 37.6709C172.639 37.3209 172.997 37.0266 173.397 36.791C174.249 36.2899 175.244 36.0391 176.38 36.0391C177.649 36.0391 178.785 36.3237 179.787 36.8916C180.806 37.4596 181.609 38.2611 182.193 39.2969C182.795 40.3326 183.096 41.5606 183.096 42.9805C183.096 44.3838 182.795 45.6039 182.193 46.6396C181.609 47.6754 180.806 48.4856 179.787 49.0703C178.785 49.6381 177.649 49.9218 176.38 49.9219C175.194 49.9219 174.174 49.672 173.322 49.1709C172.873 48.9069 172.482 48.5689 172.145 48.1611V49.7217H168.41V31.1279H172.319V37.6709ZM190.098 36.541H193.456V39.5479H190.098V45.0361C190.098 45.604 190.248 46.0469 190.549 46.3643C190.849 46.6648 191.259 46.8154 191.776 46.8154C192.395 46.8154 192.921 46.6476 193.355 46.3135L194.408 49.0703C194.007 49.3543 193.522 49.5713 192.954 49.7217C192.403 49.8553 191.827 49.9219 191.226 49.9219C189.639 49.9219 188.402 49.5215 187.517 48.7197C186.631 47.9011 186.188 46.6897 186.188 45.0859V39.5479H184.108V36.541H186.188V33.2578H190.098V36.541ZM48.167 44.5098L52.3047 32.1807H56.0635L60.0693 44.6006L64.1572 32.1807H68.042L62.3027 49.7217H57.9424L54.0752 37.8369L50.0986 49.7217H45.7383L40 32.1807H44.21L48.167 44.5098ZM74.1621 49.7217H70.2529V36.2402H74.1621V49.7217ZM128.419 36.0391C129.488 36.0391 130.441 36.2561 131.276 36.6904C132.128 37.1081 132.796 37.7602 133.28 38.6455C133.765 39.5142 134.008 40.634 134.008 42.0039V49.7217H130.099V42.6045C130.099 41.5188 129.856 40.717 129.371 40.1992C128.903 39.6815 128.236 39.4229 127.367 39.4229C126.749 39.4229 126.189 39.5559 125.688 39.8232C125.203 40.0738 124.819 40.4665 124.535 41.001C124.268 41.5355 124.134 42.2205 124.134 43.0557V49.7217H120.225V36.2402H123.959V37.8438C124.346 37.4122 124.804 37.0516 125.337 36.7656C126.239 36.2813 127.266 36.0391 128.419 36.0391ZM141.887 46.4141H150.683V49.7217H137.827V32.1807H141.887V46.4141ZM175.703 39.2471C175.052 39.2471 174.466 39.3975 173.948 39.6982C173.431 39.9989 173.021 40.4254 172.721 40.9766C172.42 41.5277 172.27 42.1956 172.27 42.9805C172.27 43.7489 172.42 44.4174 172.721 44.9854C173.021 45.5366 173.43 45.963 173.948 46.2637C174.466 46.5644 175.052 46.7148 175.703 46.7148C176.354 46.7148 176.931 46.5643 177.432 46.2637C177.95 45.963 178.359 45.5367 178.66 44.9854C178.977 44.4174 179.136 43.7488 179.136 42.9805C179.136 42.1957 178.977 41.5277 178.66 40.9766C178.359 40.4253 177.95 39.999 177.432 39.6982C176.931 39.3976 176.354 39.2471 175.703 39.2471ZM110.631 38.9961C109.963 38.9961 109.369 39.1467 108.852 39.4473C108.35 39.7313 107.958 40.1412 107.674 40.6758C107.491 41.0098 107.368 41.3854 107.303 41.8027H113.938C113.875 41.3783 113.751 40.994 113.562 40.6504C113.278 40.1325 112.886 39.7313 112.385 39.4473C111.884 39.1466 111.299 38.9962 110.631 38.9961ZM158.816 38.9961C158.148 38.9961 157.555 39.1466 157.037 39.4473C156.536 39.7313 156.143 40.1412 155.859 40.6758C155.676 41.0097 155.553 41.3854 155.488 41.8027H162.124C162.061 41.3782 161.936 40.994 161.748 40.6504C161.464 40.1325 161.072 39.7313 160.57 39.4473C160.069 39.1466 159.485 38.9961 158.816 38.9961ZM72.207 30C72.9253 30 73.5099 30.2007 73.9609 30.6016C74.412 30.9858 74.6377 31.4873 74.6377 32.1055C74.6376 32.7568 74.4119 33.2991 73.9609 33.7334C73.5266 34.1511 72.9421 34.3604 72.207 34.3604C71.4887 34.3603 70.9042 34.151 70.4531 33.7334C70.0023 33.3159 69.7765 32.7985 69.7764 32.1807C69.7764 31.5626 70.0022 31.0446 70.4531 30.627C70.9042 30.2093 71.4887 30 72.207 30Z" fill="#003B7C"/>
<path d="M205.448 31.8799C206.835 31.8799 208.104 32.1047 209.257 32.5557C210.426 33.0067 211.437 33.6423 212.289 34.4609C213.158 35.2795 213.835 36.2402 214.319 37.3428C214.804 38.4286 215.046 39.6315 215.046 40.9512C215.046 42.2542 214.804 43.4657 214.319 44.585C213.835 45.6875 213.158 46.6482 212.289 47.4668C211.437 48.2686 210.426 48.8947 209.257 49.3457C208.104 49.7968 206.843 50.0225 205.473 50.0225C204.086 50.0224 202.8 49.7967 201.614 49.3457C200.445 48.8946 199.425 48.26 198.557 47.4414C197.705 46.6228 197.036 45.6622 196.552 44.5596C196.084 43.457 195.851 42.2542 195.851 40.9512C195.851 39.6482 196.084 38.4453 196.552 37.3428C197.036 36.2402 197.713 35.2795 198.582 34.4609C199.451 33.6424 200.469 33.0067 201.639 32.5557C202.808 32.1046 204.078 31.8799 205.448 31.8799ZM273.836 36.0391C275.156 36.0391 276.342 36.3236 277.395 36.8916C278.464 37.4429 279.308 38.2444 279.926 39.2969C280.544 40.3327 280.853 41.5778 280.853 43.0312C280.853 43.1815 280.845 43.3573 280.828 43.5576C280.811 43.7411 280.794 43.9162 280.777 44.083H270.579C270.658 44.4419 270.781 44.7766 270.954 45.0859C271.288 45.6372 271.748 46.0635 272.333 46.3643C272.934 46.6481 273.636 46.79 274.438 46.79C275.156 46.79 275.783 46.681 276.317 46.4639C276.869 46.2467 277.369 45.9206 277.82 45.4863L279.9 47.7422C279.282 48.4438 278.506 48.9869 277.57 49.3711C276.635 49.7386 275.556 49.9219 274.337 49.9219C272.8 49.9218 271.447 49.6219 270.277 49.0205C269.125 48.4191 268.231 47.6001 267.597 46.5645C266.962 45.512 266.645 44.317 266.645 42.9805C266.645 41.6274 266.953 40.4331 267.571 39.3975C268.206 38.345 269.066 37.5261 270.152 36.9414C271.238 36.34 272.466 36.0391 273.836 36.0391ZM226.016 36.0391C227.085 36.0391 228.037 36.2562 228.872 36.6904C229.724 37.1081 230.392 37.7601 230.877 38.6455C231.361 39.5142 231.604 40.634 231.604 42.0039V49.7217H227.694V42.6045C227.694 41.5188 227.452 40.717 226.968 40.1992C226.5 39.6813 225.832 39.4229 224.963 39.4229C224.345 39.4229 223.785 39.556 223.284 39.8232C222.8 40.0738 222.415 40.4664 222.131 41.001C221.864 41.5355 221.731 42.2205 221.73 43.0557V49.7217H217.821V36.2402H221.555V37.8447C221.942 37.4128 222.401 37.0518 222.934 36.7656C223.836 36.2813 224.863 36.0391 226.016 36.0391ZM239.057 49.7217H235.147V31.1279H239.057V49.7217ZM246.594 49.7217H242.685V36.2402H246.594V49.7217ZM258.417 36.0391C259.486 36.0391 260.438 36.2562 261.273 36.6904C262.125 37.1081 262.794 37.7601 263.278 38.6455C263.763 39.5142 264.005 40.634 264.005 42.0039V49.7217H260.096V42.6045C260.096 41.5189 259.854 40.717 259.369 40.1992C258.901 39.6813 258.233 39.4229 257.364 39.4229C256.746 39.4229 256.187 39.556 255.686 39.8232C255.201 40.0738 254.816 40.4664 254.532 41.001C254.265 41.5355 254.132 42.2205 254.132 43.0557V49.7217H250.223V36.2402H253.956V37.8447C254.343 37.4129 254.801 37.0518 255.334 36.7656C256.236 36.2811 257.264 36.0391 258.417 36.0391ZM205.448 35.3379C204.663 35.3379 203.936 35.471 203.268 35.7383C202.616 36.0056 202.04 36.3905 201.539 36.8916C201.038 37.3928 200.645 37.9859 200.361 38.6709C200.094 39.3558 199.96 40.1159 199.96 40.9512C199.96 41.7697 200.094 42.5298 200.361 43.2314C200.645 43.9163 201.029 44.5096 201.514 45.0107C202.015 45.5118 202.599 45.8958 203.268 46.1631C203.936 46.4304 204.663 46.5645 205.448 46.5645C206.233 46.5644 206.952 46.4304 207.604 46.1631C208.272 45.8958 208.856 45.5118 209.357 45.0107C209.859 44.5096 210.242 43.9163 210.51 43.2314C210.794 42.5465 210.936 41.7864 210.936 40.9512C210.936 40.1159 210.794 39.3558 210.51 38.6709C210.243 37.986 209.859 37.3927 209.357 36.8916C208.873 36.3904 208.296 36.0056 207.628 35.7383C206.96 35.4711 206.233 35.3379 205.448 35.3379ZM273.861 38.9961C273.193 38.9961 272.6 39.1466 272.082 39.4473C271.581 39.7313 271.188 40.1412 270.904 40.6758C270.721 41.0097 270.598 41.3854 270.533 41.8027H277.169C277.106 41.3782 276.981 40.994 276.793 40.6504C276.509 40.1325 276.116 39.7313 275.615 39.4473C275.114 39.1466 274.529 38.9961 273.861 38.9961ZM244.64 30C245.358 30 245.943 30.2006 246.394 30.6016C246.845 30.9858 247.07 31.4873 247.07 32.1055C247.07 32.7567 246.844 33.2992 246.394 33.7334C245.959 34.151 245.375 34.3603 244.64 34.3604C243.921 34.3604 243.337 34.1511 242.886 33.7334C242.435 33.3158 242.209 32.7986 242.209 32.1807C242.209 31.5625 242.435 31.0446 242.886 30.627C243.337 30.2093 243.921 30 244.64 30Z" fill="#EC4A70"/>
<path d="M107.415 61.4013V63.4618H111.031V64.9098H107.415V67.7499H105.606V59.9534H111.511V61.4013H107.415Z" fill="#4F4F5B"/>
<path d="M114.167 62.5485C114.375 62.2589 114.654 62.0399 115.004 61.8914C115.361 61.7429 115.77 61.6686 116.232 61.6686V63.2725C116.038 63.2576 115.908 63.2502 115.841 63.2502C115.342 63.2502 114.952 63.3913 114.669 63.6735C114.386 63.9482 114.245 64.364 114.245 64.9209V67.7499H112.504V61.7577H114.167V62.5485Z" fill="#4F4F5B"/>
<path d="M123.095 64.7761C123.095 64.7984 123.084 64.9543 123.061 65.2439H118.518C118.6 65.6152 118.794 65.9085 119.099 66.1238C119.404 66.3391 119.784 66.4468 120.237 66.4468C120.55 66.4468 120.825 66.4023 121.063 66.3131C121.309 66.2166 121.536 66.0681 121.744 65.8676L122.671 66.87C122.105 67.516 121.279 67.839 120.193 67.839C119.516 67.839 118.917 67.7091 118.396 67.4492C117.875 67.1819 117.473 66.8144 117.19 66.3466C116.907 65.8788 116.766 65.3479 116.766 64.7538C116.766 64.1672 116.904 63.64 117.179 63.1722C117.462 62.697 117.845 62.3295 118.329 62.0696C118.82 61.8023 119.367 61.6686 119.97 61.6686C120.557 61.6686 121.089 61.7949 121.566 62.0473C122.042 62.2998 122.414 62.6636 122.682 63.1388C122.957 63.6066 123.095 64.1524 123.095 64.7761ZM119.981 62.9829C119.586 62.9829 119.255 63.0943 118.987 63.317C118.719 63.5398 118.556 63.8442 118.496 64.2304H121.454C121.395 63.8517 121.231 63.5509 120.963 63.3282C120.695 63.098 120.368 62.9829 119.981 62.9829Z" fill="#4F4F5B"/>
<path d="M124.254 61.7577H125.995V67.7499H124.254V61.7577ZM125.125 60.9224C124.805 60.9224 124.544 60.8296 124.343 60.6439C124.143 60.4583 124.042 60.2281 124.042 59.9534C124.042 59.6786 124.143 59.4485 124.343 59.2628C124.544 59.0772 124.805 58.9844 125.125 58.9844C125.445 58.9844 125.705 59.0735 125.906 59.2517C126.107 59.4299 126.208 59.6527 126.208 59.92C126.208 60.2096 126.107 60.4509 125.906 60.6439C125.705 60.8296 125.445 60.9224 125.125 60.9224Z" fill="#4F4F5B"/>
<path d="M133.494 64.7761C133.494 64.7984 133.483 64.9543 133.46 65.2439H128.917C128.999 65.6152 129.193 65.9085 129.498 66.1238C129.803 66.3391 130.183 66.4468 130.636 66.4468C130.949 66.4468 131.224 66.4023 131.462 66.3131C131.708 66.2166 131.935 66.0681 132.143 65.8676L133.07 66.87C132.504 67.516 131.678 67.839 130.592 67.839C129.915 67.839 129.316 67.7091 128.795 67.4492C128.274 67.1819 127.872 66.8144 127.589 66.3466C127.306 65.8788 127.165 65.3479 127.165 64.7538C127.165 64.1672 127.303 63.64 127.578 63.1722C127.861 62.697 128.244 62.3295 128.728 62.0696C129.219 61.8023 129.766 61.6686 130.369 61.6686C130.956 61.6686 131.488 61.7949 131.965 62.0473C132.441 62.2998 132.813 62.6636 133.081 63.1388C133.356 63.6066 133.494 64.1524 133.494 64.7761ZM130.38 62.9829C129.985 62.9829 129.654 63.0943 129.386 63.317C129.118 63.5398 128.955 63.8442 128.895 64.2304H131.853C131.794 63.8517 131.63 63.5509 131.362 63.3282C131.094 63.098 130.767 62.9829 130.38 62.9829Z" fill="#4F4F5B"/>
<path d="M143.674 63.6957C144.121 63.8368 144.471 64.0744 144.724 64.4086C144.977 64.7353 145.103 65.14 145.103 65.6226C145.103 66.3057 144.835 66.8329 144.299 67.2042C143.771 67.568 142.997 67.7499 141.978 67.7499H137.937V59.9534H141.755C142.707 59.9534 143.436 60.1353 143.942 60.4991C144.456 60.863 144.712 61.3568 144.712 61.9805C144.712 62.3592 144.619 62.697 144.433 62.994C144.255 63.291 144.002 63.5249 143.674 63.6957ZM139.734 61.3122V63.15H141.531C141.978 63.15 142.316 63.072 142.547 62.9161C142.778 62.7601 142.893 62.53 142.893 62.2255C142.893 61.9211 142.778 61.6946 142.547 61.5461C142.316 61.3902 141.978 61.3122 141.531 61.3122H139.734ZM141.844 66.3911C142.32 66.3911 142.677 66.3131 142.915 66.1572C143.161 66.0013 143.284 65.76 143.284 65.4332C143.284 64.7872 142.804 64.4642 141.844 64.4642H139.734V66.3911H141.844Z" fill="#4F4F5B"/>
<path d="M146.349 61.7577H148.091V67.7499H146.349V61.7577ZM147.22 60.9224C146.9 60.9224 146.64 60.8296 146.439 60.6439C146.238 60.4583 146.137 60.2281 146.137 59.9534C146.137 59.6786 146.238 59.4485 146.439 59.2628C146.64 59.0772 146.9 58.9844 147.22 58.9844C147.54 58.9844 147.8 59.0735 148.001 59.2517C148.202 59.4299 148.303 59.6527 148.303 59.92C148.303 60.2096 148.202 60.4509 148.001 60.6439C147.8 60.8296 147.54 60.9224 147.22 60.9224Z" fill="#4F4F5B"/>
<path d="M149.707 59.4856H151.448V67.7499H149.707V59.4856Z" fill="#4F4F5B"/>
<path d="M159.181 59.4856V67.7499H157.518V67.0594C157.086 67.5792 156.461 67.839 155.642 67.839C155.077 67.839 154.563 67.7128 154.102 67.4604C153.648 67.2079 153.291 66.8478 153.031 66.38C152.77 65.9122 152.64 65.3701 152.64 64.7538C152.64 64.1375 152.77 63.5955 153.031 63.1277C153.291 62.6599 153.648 62.2998 154.102 62.0473C154.563 61.7949 155.077 61.6686 155.642 61.6686C156.409 61.6686 157.008 61.9099 157.44 62.3926V59.4856H159.181ZM155.944 66.4134C156.383 66.4134 156.747 66.2649 157.038 65.9679C157.328 65.6634 157.473 65.2588 157.473 64.7538C157.473 64.2489 157.328 63.8479 157.038 63.5509C156.747 63.2465 156.383 63.0943 155.944 63.0943C155.497 63.0943 155.129 63.2465 154.839 63.5509C154.549 63.8479 154.403 64.2489 154.403 64.7538C154.403 65.2588 154.549 65.6634 154.839 65.9679C155.129 66.2649 155.497 66.4134 155.944 66.4134Z" fill="#4F4F5B"/>
<path d="M166.842 61.7577V67.7499H165.19V67.0371C164.96 67.297 164.684 67.4975 164.364 67.6386C164.044 67.7722 163.698 67.839 163.326 67.839C162.537 67.839 161.912 67.6126 161.451 67.1596C160.99 66.7067 160.759 66.0347 160.759 65.1437V61.7577H162.5V64.8875C162.5 65.8528 162.906 66.3354 163.717 66.3354C164.134 66.3354 164.468 66.2018 164.721 65.9345C164.974 65.6597 165.101 65.255 165.101 64.7204V61.7577H166.842Z" fill="#4F4F5B"/>
<path d="M172.105 61.6686C172.85 61.6686 173.449 61.8914 173.902 62.3369C174.364 62.7824 174.595 63.4433 174.595 64.3195V67.7499H172.853V64.5868C172.853 64.1115 172.749 63.7588 172.541 63.5287C172.332 63.2911 172.031 63.1722 171.637 63.1722C171.198 63.1722 170.848 63.3096 170.587 63.5843C170.327 63.8517 170.197 64.2526 170.197 64.7872V67.7499H168.455V61.7577H170.119V62.4594C170.349 62.207 170.636 62.0139 170.978 61.8802C171.32 61.7392 171.696 61.6686 172.105 61.6686Z" fill="#4F4F5B"/>
<path d="M182.433 61.7577V66.7475C182.433 67.8465 182.147 68.6633 181.574 69.1979C181.001 69.7325 180.164 69.9998 179.062 69.9998C178.482 69.9998 177.931 69.9293 177.41 69.7882C176.889 69.6471 176.458 69.4429 176.116 69.1756L176.808 67.9282C177.061 68.1361 177.381 68.2994 177.768 68.4182C178.154 68.5445 178.541 68.6076 178.928 68.6076C179.531 68.6076 179.974 68.4702 180.257 68.1955C180.547 67.9282 180.692 67.5198 180.692 66.9703V66.7141C180.238 67.2116 179.606 67.4604 178.794 67.4604C178.244 67.4604 177.738 67.3416 177.276 67.1039C176.822 66.8589 176.462 66.5173 176.194 66.0793C175.926 65.6412 175.792 65.1362 175.792 64.5645C175.792 63.9927 175.926 63.4878 176.194 63.0497C176.462 62.6116 176.822 62.2738 177.276 62.0362C177.738 61.7911 178.244 61.6686 178.794 61.6686C179.665 61.6686 180.327 61.9545 180.781 62.5262V61.7577H182.433ZM179.14 66.0347C179.602 66.0347 179.978 65.901 180.268 65.6337C180.565 65.359 180.714 65.0026 180.714 64.5645C180.714 64.1264 180.565 63.7737 180.268 63.5064C179.978 63.2316 179.602 63.0943 179.14 63.0943C178.679 63.0943 178.3 63.2316 178.002 63.5064C177.704 63.7737 177.555 64.1264 177.555 64.5645C177.555 65.0026 177.704 65.359 178.002 65.6337C178.3 65.901 178.679 66.0347 179.14 66.0347Z" fill="#4F4F5B"/>
<path d="M192.16 66.4134V67.7499H186.802V66.703L189.86 63.0943H186.88V61.7577H192.059V62.8047L189.001 66.4134H192.16Z" fill="#4F4F5B"/>
<path d="M199.325 61.7577V67.7499H197.674V67.0371C197.443 67.297 197.168 67.4975 196.848 67.6386C196.528 67.7722 196.182 67.839 195.809 67.839C195.021 67.839 194.396 67.6126 193.934 67.1596C193.473 66.7067 193.242 66.0347 193.242 65.1437V61.7577H194.983V64.8875C194.983 65.8528 195.389 66.3354 196.2 66.3354C196.617 66.3354 196.952 66.2018 197.205 65.9345C197.458 65.6597 197.584 65.255 197.584 64.7204V61.7577H199.325Z" fill="#4F4F5B"/>
<path d="M208.629 61.6686C209.381 61.6686 209.976 61.8914 210.415 62.3369C210.862 62.775 211.085 63.4358 211.085 64.3195V67.7499H209.344V64.5868C209.344 64.1115 209.243 63.7588 209.042 63.5287C208.849 63.2911 208.57 63.1722 208.205 63.1722C207.796 63.1722 207.472 63.3059 207.234 63.5732C206.996 63.8331 206.877 64.2229 206.877 64.7427V67.7499H205.136V64.5868C205.136 63.6438 204.756 63.1722 203.997 63.1722C203.595 63.1722 203.275 63.3059 203.037 63.5732C202.799 63.8331 202.68 64.2229 202.68 64.7427V67.7499H200.939V61.7577H202.602V62.4483C202.825 62.1958 203.097 62.0028 203.417 61.8691C203.744 61.7355 204.101 61.6686 204.488 61.6686C204.912 61.6686 205.296 61.754 205.638 61.9248C205.98 62.0882 206.256 62.3295 206.464 62.6488C206.709 62.3369 207.018 62.0956 207.39 61.9248C207.77 61.754 208.183 61.6686 208.629 61.6686Z" fill="#4F4F5B"/>
<path d="M223.04 67.7499L223.029 63.072L220.729 66.9257H219.914L217.626 63.1722V67.7499H215.93V59.9534H217.425L220.35 64.7984L223.23 59.9534H224.714L224.736 67.7499H223.04Z" fill="#4F4F5B"/>
<path d="M226.467 61.7577H228.209V67.7499H226.467V61.7577ZM227.338 60.9224C227.018 60.9224 226.758 60.8296 226.557 60.6439C226.356 60.4583 226.255 60.2281 226.255 59.9534C226.255 59.6786 226.356 59.4485 226.557 59.2628C226.758 59.0772 227.018 58.9844 227.338 58.9844C227.658 58.9844 227.919 59.0735 228.119 59.2517C228.32 59.4299 228.421 59.6527 228.421 59.92C228.421 60.2096 228.32 60.4509 228.119 60.6439C227.919 60.8296 227.658 60.9224 227.338 60.9224Z" fill="#4F4F5B"/>
<path d="M233.698 67.4604C233.527 67.5866 233.315 67.6831 233.062 67.7499C232.816 67.8093 232.556 67.839 232.28 67.839C231.566 67.839 231.012 67.6571 230.617 67.2933C230.23 66.9294 230.037 66.3948 230.037 65.6894V63.2279H229.11V61.8914H230.037V60.4323H231.778V61.8914H233.274V63.2279H231.778V65.6671C231.778 65.9196 231.841 66.1164 231.968 66.2575C232.102 66.3911 232.288 66.4579 232.526 66.4579C232.801 66.4579 233.036 66.3837 233.229 66.2352L233.698 67.4604Z" fill="#4F4F5B"/>
<path d="M242.366 61.6686C243.118 61.6686 243.713 61.8914 244.152 62.3369C244.599 62.775 244.822 63.4358 244.822 64.3195V67.7499H243.081V64.5868C243.081 64.1115 242.98 63.7588 242.779 63.5287C242.586 63.2911 242.307 63.1722 241.942 63.1722C241.533 63.1722 241.209 63.3059 240.971 63.5732C240.733 63.8331 240.614 64.2229 240.614 64.7427V67.7499H238.872V64.5868C238.872 63.6438 238.493 63.1722 237.734 63.1722C237.332 63.1722 237.012 63.3059 236.774 63.5732C236.536 63.8331 236.417 64.2229 236.417 64.7427V67.7499H234.675V61.7577H236.339V62.4483C236.562 62.1958 236.833 62.0028 237.153 61.8691C237.481 61.7355 237.838 61.6686 238.225 61.6686C238.649 61.6686 239.032 61.754 239.375 61.9248C239.717 62.0882 239.992 62.3295 240.201 62.6488C240.446 62.3369 240.755 62.0956 241.127 61.9248C241.507 61.754 241.92 61.6686 242.366 61.6686Z" fill="#4F4F5B"/>
<path d="M248.805 61.6686C249.735 61.6686 250.449 61.8914 250.948 62.3369C251.446 62.775 251.696 63.4396 251.696 64.3306V67.7499H250.066V67.0037C249.739 67.5606 249.128 67.839 248.235 67.839C247.774 67.839 247.372 67.7611 247.03 67.6052C246.695 67.4492 246.438 67.2339 246.26 66.9591C246.081 66.6844 245.992 66.3726 245.992 66.0236C245.992 65.4667 246.2 65.0286 246.617 64.7093C247.041 64.39 247.692 64.2304 248.57 64.2304H249.954C249.954 63.8517 249.839 63.5621 249.608 63.3616C249.378 63.1537 249.032 63.0497 248.57 63.0497C248.25 63.0497 247.934 63.1017 247.622 63.2057C247.316 63.3022 247.056 63.4358 246.84 63.6066L246.215 62.3926C246.543 62.1624 246.933 61.9842 247.387 61.858C247.848 61.7317 248.321 61.6686 248.805 61.6686ZM248.671 66.6696C248.968 66.6696 249.233 66.6027 249.463 66.4691C249.694 66.328 249.858 66.1238 249.954 65.8565V65.2439H248.76C248.046 65.2439 247.688 65.4778 247.688 65.9456C247.688 66.1684 247.774 66.3466 247.945 66.4802C248.124 66.6064 248.366 66.6696 248.671 66.6696Z" fill="#4F4F5B"/>
<path d="M256.239 67.839C255.599 67.839 255.022 67.7091 254.509 67.4492C254.003 67.1819 253.605 66.8144 253.315 66.3466C253.032 65.8788 252.891 65.3479 252.891 64.7538C252.891 64.1598 253.032 63.6289 253.315 63.1611C253.605 62.6933 254.003 62.3295 254.509 62.0696C255.022 61.8023 255.599 61.6686 256.239 61.6686C256.872 61.6686 257.422 61.8023 257.891 62.0696C258.367 62.3295 258.713 62.7045 258.929 63.1945L257.579 63.9185C257.266 63.369 256.816 63.0943 256.228 63.0943C255.774 63.0943 255.398 63.2428 255.101 63.5398C254.803 63.8368 254.654 64.2415 254.654 64.7538C254.654 65.2662 254.803 65.6709 255.101 65.9679C255.398 66.2649 255.774 66.4134 256.228 66.4134C256.823 66.4134 257.273 66.1387 257.579 65.5892L258.929 66.3243C258.713 66.7995 258.367 67.1708 257.891 67.4381C257.422 67.7054 256.872 67.839 256.239 67.839Z" fill="#4F4F5B"/>
<path d="M263.538 61.6686C264.282 61.6686 264.881 61.8914 265.335 62.3369C265.797 62.7824 266.027 63.4433 266.027 64.3195V67.7499H264.286V64.5868C264.286 64.1115 264.182 63.7588 263.973 63.5287C263.765 63.2911 263.464 63.1722 263.069 63.1722C262.63 63.1722 262.281 63.3096 262.02 63.5843C261.76 63.8517 261.629 64.2526 261.629 64.7872V67.7499H259.888V59.4856H261.629V62.3815C261.86 62.1513 262.139 61.9768 262.467 61.858C262.794 61.7317 263.151 61.6686 263.538 61.6686Z" fill="#4F4F5B"/>
<path d="M273.553 64.7761C273.553 64.7984 273.542 64.9543 273.52 65.2439H268.977C269.059 65.6152 269.252 65.9085 269.557 66.1238C269.863 66.3391 270.242 66.4468 270.696 66.4468C271.009 66.4468 271.284 66.4023 271.522 66.3131C271.768 66.2166 271.994 66.0681 272.203 65.8676L273.129 66.87C272.564 67.516 271.738 67.839 270.651 67.839C269.974 67.839 269.375 67.7091 268.854 67.4492C268.333 67.1819 267.932 66.8144 267.649 66.3466C267.366 65.8788 267.225 65.3479 267.225 64.7538C267.225 64.1672 267.362 63.64 267.638 63.1722C267.92 62.697 268.304 62.3295 268.787 62.0696C269.278 61.8023 269.825 61.6686 270.428 61.6686C271.016 61.6686 271.548 61.7949 272.024 62.0473C272.501 62.2998 272.873 62.6636 273.14 63.1388C273.416 63.6066 273.553 64.1524 273.553 64.7761ZM270.439 62.9829C270.045 62.9829 269.714 63.0943 269.446 63.317C269.178 63.5398 269.014 63.8442 268.955 64.2304H271.913C271.853 63.8517 271.689 63.5509 271.422 63.3282C271.154 63.098 270.826 62.9829 270.439 62.9829Z" fill="#4F4F5B"/>
<path d="M278.363 61.6686C279.107 61.6686 279.706 61.8914 280.16 62.3369C280.621 62.7824 280.852 63.4433 280.852 64.3195V67.7499H279.111V64.5868C279.111 64.1115 279.006 63.7588 278.798 63.5287C278.59 63.2911 278.288 63.1722 277.894 63.1722C277.455 63.1722 277.105 63.3096 276.845 63.5843C276.584 63.8517 276.454 64.2526 276.454 64.7872V67.7499H274.713V61.7577H276.376V62.4594C276.607 62.207 276.893 62.0139 277.235 61.8802C277.578 61.7392 277.953 61.6686 278.363 61.6686Z" fill="#4F4F5B"/>
</svg>
